<svg width="892" height="552" viewBox="0 0 892 552" fill="none" xmlns="http://www.w3.org/2000/svg">
<g clip-path="url(#clip0_745_2083)">
<path fill-rule="evenodd" clip-rule="evenodd" d="M383.74 513.2C383.74 513.2 363.571 523.083 354.473 526.154C345.079 529.325 332.065 531.965 322.328 533.831C313.472 535.527 301.592 537.783 292.582 538.148C276.587 538.798 254.994 538.075 239.326 534.79C215.929 529.885 164.48 507.443 164.48 507.443L93.9521 471.46C93.9521 471.46 56.2491 445.954 42.1361 432.598C31.8961 422.908 17.6621 409.486 11.9101 396.615C9.00326 390.111 8.55156 373.106 8.55156 373.106L13.3494 367.349C13.3494 367.349 8.49436 361.693 7.59196 358.713C7.13315 357.197 7.47123 355.014 7.59196 353.435C7.73631 351.547 8.65766 349.088 8.55152 347.198C8.05831 338.413 1.73582 327.648 0.875022 318.891C0.0564322 310.563 0.511222 299.114 2.79412 291.064C5.41122 281.835 12.2516 270.675 17.6671 262.757C28.4381 247.01 45.3851 227.715 59.4081 214.779C72.4211 202.775 91.5191 188.513 106.906 179.755C119.127 172.799 136.963 166.574 150.086 161.523C172.134 153.038 224.452 135.615 224.452 135.615C224.452 135.615 258.745 118.007 274.829 116.904C277.477 116.722 280.811 118.799 283.465 118.823C285.308 118.84 288.211 118.933 289.485 117.601C290.659 116.374 289.303 113.336 290.362 112.009C293.709 107.816 302.24 107.912 306.974 105.389C312.823 102.272 319.804 96.755 325.206 92.9151C334.685 86.1759 346.28 75.6321 356.392 69.8861C374.171 59.7821 399.691 49.4921 419.243 43.4981C436.084 38.3357 459.871 36.7921 476.817 31.9831C481.987 30.516 488.604 27.7011 493.609 25.746C508.099 20.0863 526.898 11.196 541.587 6.07501C546.964 4.20061 554.171 1.52471 559.819 0.797414C565.388 0.080244 572.933 0.826744 578.53 1.27719C590.258 2.22103 605.708 5.16779 617.392 6.55479C625.869 7.56109 637.165 9.62859 645.699 9.43349C649.627 9.34367 654.727 7.64649 658.653 7.51439C669.476 7.15032 683.932 8.75239 694.636 10.3931C716.38 13.7258 744.941 20.7731 766.123 26.7051C777.519 29.8964 793.063 33.6871 803.546 39.1791C808.008 41.5171 813.669 45.4578 816.98 49.2541C818.928 51.4878 819.479 56.0189 821.778 57.8901C833.005 67.0299 855.451 64.7892 867.837 72.2831C872.191 74.9175 877.577 79.7154 879.831 84.2771C884.656 94.0406 884.629 120.26 884.629 120.26L884.149 141.37L880.311 156.243C880.311 156.243 876.568 138.706 872.634 132.254C870.621 128.952 864.021 127.494 860.336 126.32C853.798 124.237 845.944 125.481 839.908 128.744C832.651 132.667 824.165 142.807 818.284 149.908C812.403 157.009 807.215 164.487 802.106 174.474C796.997 184.461 792.109 203.06 789.632 213.336C787.155 223.612 787.348 226.829 786.779 235.708C786.512 239.876 786.754 250.102 788.143 254.041C788.621 255.399 788.702 257.169 789.43 258.41C790.148 259.632 790.56 263.328 790.112 264.672C785.629 278.12 748.851 287.701 748.851 287.701L692.237 319.846L640.421 347.673L504.161 433.554C512.334 412.647 510.956 414.216 512.387 398.928C514.38 382.024 512.297 375.167 511.591 362.313C503.717 343.16 502.939 342.637 492.482 331.923C484.486 330.644 482.108 329.365 470.74 329.771C452.881 335.126 451.877 335.987 437.951 345.275C427.802 353.976 416.639 365.692 405.257 379.806C398.25 388.495 392.173 402.712 385.422 419.312C381.115 429.903 379.236 444.2 378.459 455.624C377.637 467.709 377.835 480.045 378.939 492.087C379.594 499.236 382.137 506.161 383.737 513.197L383.74 513.2Z" fill="#D40000" stroke="black"/>
<path d="M7.55664 371.48C7.55664 371.48 17.3904 391.924 23.2886 399.574C31.4416 410.147 44.8976 422.126 55.3156 430.477C72.9706 444.629 98.6296 460.776 118.246 472.056C135.368 481.901 159.057 493.569 177.243 501.273C192.068 507.554 212.234 515.181 227.811 519.253C239.393 522.281 255.27 524.46 267.142 525.995C276.707 527.233 288.41 527.555 298.045 527.119C313.272 526.431 334.351 523.359 349.175 519.815C359.445 517.36 382.887 509.701 382.887 509.701" stroke="black"/>
<path d="M40.7072 418.67L35.6504 397.881C35.6504 397.881 57.0354 414.736 66.5534 421.48C77.0814 428.94 91.2254 438.828 102.513 445.079C114.522 451.729 131.267 459.288 144.092 464.183C152.66 467.453 173.309 473.173 173.309 473.173L172.748 472.049" stroke="black"/>
<path d="M323.33 509.7L303.103 488.911C300.589 482.969 300.061 481.993 299.732 478.235C298.926 474.234 298.716 474.007 300.294 469.807C302.53 465.772 302.978 465.908 307.598 463.064L343.558 452.95L366.033 444.522C365.25 457.74 365.262 457.649 365.472 468.682C365.812 479.999 365.755 479.794 368.281 498.461L323.331 509.698L323.33 509.7Z" stroke="black"/>
<path d="M367.72 497.9L331.76 489.472L330.074 456.883V456.321" stroke="black"/>
<path d="M331.3 488.87L328.457 491.549C326.605 493.346 318.688 494.926 311.039 497.168" stroke="black"/>
<path d="M183.54 503.94L174.005 472.95C167.175 461.215 168.396 453.428 172.416 441.96C172.416 441.96 188.528 419.252 196.254 410.176C208.056 396.311 224.409 378.163 238.368 366.473C259.708 348.602 291.496 329.009 315.445 314.824C333.242 304.283 357.518 290.951 376.63 283.04C381.018 281.223 391.728 278.272 391.728 278.272" stroke="black"/>
<path d="M188.79 436.85C188.79 436.85 201.718 418.698 208.655 412.217C217.16 404.271 229.884 394.873 240.439 389.968C251.398 384.875 267.405 381.304 279.375 379.638C293.071 377.732 311.636 378.611 325.462 378.843C339.543 379.08 372.344 381.227 372.344 381.227C372.344 381.227 342.16 407.321 328.641 417.779C318.909 425.307 306.232 436.034 295.267 441.617C286.534 446.064 273.951 450.377 264.277 451.947C257.453 453.055 248.104 452.711 241.233 451.947C231.519 450.868 218.802 447.63 209.449 444.796C203.094 442.87 188.789 436.85 188.789 436.85L188.79 436.85Z" stroke="black"/>
<path d="M372.63 381.56C377.537 381.945 375.701 381.207 381.45 381.873C386.467 381.509 394.854 383.392 399.59 387.804" stroke="black"/>
<path d="M19.917 343.38C19.917 343.38 38.252 328.298 43.516 319.781C47.9998 312.526 50.8604 301.18 52.506 292.811C54.4617 282.865 55.1896 269.225 54.7535 259.099C54.3719 250.239 50.2585 229.882 50.2585 229.882C50.2585 229.882 17.6275 262.135 8.67951 279.327C6.26321 283.969 4.75631 290.981 4.18451 296.183C3.29971 304.233 2.65691 315.501 5.30821 323.153C7.75901 330.226 19.917 343.38 19.917 343.38Z" stroke="black"/>
<path d="M18.7939 342.26C18.7939 342.26 34.1219 357.661 41.2689 363.611C51.8409 372.413 66.6509 383.349 78.3529 390.581C95.7969 401.362 120.113 414.143 139.035 422.046C150.152 426.689 177.242 434.407 177.242 434.407" stroke="black"/>
<path fill-rule="evenodd" clip-rule="evenodd" d="M307.69 107.24L231.94 160.24L200.19 192.24L192.94 206.99L193.94 220.49L201.19 230.24L218.19 245.74C218.19 245.74 247.448 264.042 260.94 269.99C266.93 272.631 275.295 275.343 281.69 276.74C294.378 279.512 311.711 281.287 324.69 281.74C340.972 282.308 362.752 281.076 378.94 279.24C398.103 277.066 423.432 272.22 442.19 267.74C465.478 262.178 496.249 253.337 518.69 244.99C531.873 240.087 549.314 232.867 561.44 225.74C578.122 215.935 598.282 199.576 613.19 187.24C620.879 180.878 637.69 164.74 637.69 164.74L641.19 149.49L637.44 130.49L633.69 115.74C633.69 115.74 605.67 124.251 593.69 127.99C577.388 133.078 556.006 141.09 539.44 145.24C529.452 147.742 515.899 150.145 505.69 151.49C489.653 153.603 468.1 153.949 451.94 153.24C434.769 152.487 412.203 150.038 395.44 146.24C381.364 143.051 362.581 138.375 349.19 132.99C343.525 130.712 336.405 126.666 331.19 123.49C326.819 120.828 317.19 113.74 317.19 113.74L312.69 106.99L311.44 105.24L307.69 107.24Z" fill="#916F6F" stroke="black"/>
<path d="M32.3447 354.89L111.541 277.108L197.808 195.084" stroke="black"/>
<path d="M6.88965 341.11C6.88965 341.11 23.1036 359.086 30.9316 365.859C42.4186 375.799 59.1466 387.373 71.9436 395.557C88.7466 406.303 112.509 420.324 129.927 428.084C145.631 435.08 172.593 445.343 189.324 449.297C209.083 453.966 251.549 463.439 251.549 463.439L278.419 457.782C278.419 457.782 294.571 452.558 301.047 449.297C308.719 445.433 318.268 438.964 325.089 433.741C334.152 426.8 338.862 423.249 355.495 409.699C372.469 395.872 393.602 370.27 411.356 354.545C427.582 340.174 448.974 320.615 466.51 307.876C483.465 295.558 507.861 281.761 525.907 271.106C539.32 263.186 571.162 245.65 571.162 245.65" stroke="black"/>
<path d="M195.55 479.61C195.429 480.618 195.731 481.993 196.052 482.956C196.52 484.362 197.468 486.148 198.394 487.306C200.305 489.695 203.594 492.229 206.09 493.998C208.822 495.934 212.759 498.101 215.793 499.519C219.045 501.038 224.336 503.665 227.712 504.884C233.012 506.798 239.279 508.488 244.736 509.891C248.236 510.791 253.013 511.597 256.614 511.899C260.965 512.264 267.071 513.405 271.169 511.899C272.406 511.444 273.892 510.215 274.515 509.055C275.113 507.941 275.178 506.126 275.017 504.872C274.633 501.877 272.797 498.147 271.336 495.504C269.618 492.393 266.881 488.42 264.31 485.967C262.608 484.344 259.926 482.592 257.785 481.618C255.181 480.432 251.39 479.663 248.583 479.108C244.614 478.323 239.212 477.958 235.2 477.435C230.378 476.807 223.975 475.768 219.139 475.26C215.785 474.908 211.3 474.51 207.93 474.424C205.772 474.368 200.736 474.591 200.736 474.591C200.736 474.591 197.902 475.115 197.055 475.929C196.195 476.756 195.692 478.426 195.55 479.61Z" stroke="black"/>
<path d="M209.8 474.39C209.8 474.39 210.989 480.079 212.142 482.253C212.81 483.514 214.112 484.958 215.153 485.934C216.414 487.114 218.318 488.459 219.838 489.28C222.159 490.533 225.55 491.575 228.036 492.458C231.565 493.713 236.347 495.162 239.913 496.306C244.176 497.674 249.867 499.472 254.135 500.823C257.948 502.031 262.962 503.894 266.85 504.839C268.285 505.187 270.224 505.671 271.701 505.675C272.617 505.678 274.713 505.173 274.713 505.173" stroke="black"/>
<path d="M530.02 242.16L534.279 253.99C534.279 253.99 537.746 269.47 538.064 276.23C538.513 285.757 536.307 298.416 535.698 307.934C535.018 318.574 533.983 332.763 533.806 343.424C533.687 350.522 531.926 360.386 534.279 367.084C535.822 371.477 539.328 377.906 543.743 379.387C549.463 381.306 552.361 378.945 563.381 372.289C566.7 370.284 570.895 366.829 573.555 364.008C577.191 360.152 577.968 353.832 581.126 349.575C594.406 331.675 625.251 321.084 640.276 304.621C642.984 301.653 645.784 296.954 647.374 293.264C648.709 290.165 648.459 285.263 650.213 282.38C658.154 269.327 688.069 248.31 688.069 248.31C688.069 248.31 706.564 211.126 710.309 193.892C711.063 190.421 711.586 185.522 710.782 182.062C709.906 178.288 707.472 173.339 704.631 170.705C700.297 166.688 686.649 162.661 686.649 162.661L669.614 157.929C669.614 157.929 660.008 135.839 654.472 127.171C651.917 123.172 647.976 118.133 644.534 114.868C640.847 111.369 630.811 104.93 630.811 104.93C630.811 104.93 603.007 115.913 591.062 120.546C579.583 124.998 565.501 129.884 553.679 133.322C545.473 135.71 524.814 140.894 524.814 140.894V244.994L530.02 242.154L530.02 242.16Z" stroke="black"/>
<path d="M536.01 250.57C536.01 250.57 555.315 241.876 563.447 237.855C567.311 235.944 572.42 233.303 576.162 231.163C599.327 217.914 629.888 199.577 651.782 184.319C668.915 172.379 690.39 154.585 706.657 141.49C717.429 132.818 731.91 121.804 743.129 113.718C750.224 108.604 759.49 101.322 766.886 96.6531C774.75 91.6885 826.445 61.1851 826.445 61.1851" stroke="black"/>
<path d="M578.29 355.26L589.647 356.206L630.342 328.761L690.911 292.798L726.874 266.299L748.641 222.765L758.105 187.748L699.429 227.497" stroke="black"/>
<path d="M751.48 191.53L740.123 226.547L733.499 237.904C733.499 237.904 727.597 239.71 724.981 239.797C721.249 239.92 715.696 240.104 712.678 237.904C710.626 236.408 710.114 232.559 708.892 230.333C708.096 228.882 706.495 227.196 706.053 225.601C705.977 225.327 706.053 224.654 706.053 224.654" stroke="black"/>
<path d="M737.29 230.33L727.826 253.99L718.362 267.24L618.99 331.595L592.491 350.523" stroke="black"/>
<path d="M741.25 101.49C741.25 101.49 726.694 95.96 716.644 92.026C708.11 88.6854 696.367 84.8814 687.306 83.5084C671.864 81.1688 650.802 81.0858 635.254 82.562C618.79 84.1251 597.182 89.2751 581.31 93.919C570.53 97.0728 556.842 103.312 546.293 107.169C541.486 108.927 530.204 112.847 530.204 112.847" stroke="black"/>
<path d="M578.94 73.688C579.887 65.1704 560.831 65.5423 551.962 63.631C540.552 61.1723 524.82 60.2765 513.16 60.7918C500.803 61.338 484.609 65.0672 472.465 67.4166C458.466 70.1248 439.672 73.4818 426.092 77.8266C420.518 79.6103 408.11 85.3978 408.11 85.3978C408.11 85.3978 404.702 89.9367 405.271 92.0226C406.662 97.1172 414.696 100.168 419.467 102.433C426.621 105.829 445.02 109.057 445.02 109.057L461.109 107.165C461.109 107.165 490.246 98.5102 502.75 94.8616C519.485 89.9785 538.704 82.7346 555.759 79.1266C562.909 77.6142 570.625 75.1744 579.082 74.0348C587.539 72.8952 596.738 73.056 604.025 72.5018C622.429 71.1024 649.928 70.4465 668.369 71.2019C680.055 71.6806 695.848 72.2573 707.171 74.9875C718.494 77.7177 728.735 79.9215 734.649 84.5872C740.563 89.2529 741.338 88.9759 742.158 91.5763C742.978 94.1767 742.059 92.155 742.688 95.7262C743.317 99.2974 741.915 102.396 741.679 101.924" stroke="black"/>
<path d="M418.92 101.75C410.911 99.2387 401.078 93.4685 399.37 87.176C401.646 80.5288 407.156 78.0402 411.875 76.225C411.875 76.225 435.953 68.3961 446.674 65.207C457.695 61.9287 465.214 60.8155 476.578 59.0694C490.014 57.005 506.682 54.5289 520.272 54.8246C530.284 55.0424 552.394 56.2562 562.331 57.5014C579.853 59.6972 585.868 62.5303 585.868 62.5303C588.991 67.7038 591.168 69.0917 590.978 72.3723" stroke="black"/>
<path d="M804.86 56.1531L727.048 30.5081L650.39 17.2581L642.819 18.2044L625.784 22.9364L759.224 61.7384L759.526 78.9394" stroke="black"/>
<path d="M580.36 219.79L642.822 180.988L672.16 157.328L737.461 108.115L760.175 78.777L818.425 52.86" stroke="black"/>
<path d="M631.97 60.3841C631.97 60.3841 606.663 48.3011 595.2 44.8281C586.52 42.1978 574.47 40.5216 565.502 39.1712C550.306 36.8832 529.957 33.3594 514.59 33.5144C498.33 33.6783 475.501 32.4128 459.436 34.9286" stroke="black"/>
<path d="M626.31 57.556L592.369 71.698" stroke="black"/>
<path d="M634.8 8.05835L565.504 36.3424" stroke="black"/>
<path d="M633.39 29.272L602.277 44.828" stroke="black"/>
<path d="M525.36 140.61C525.36 140.61 498.569 145.166 486.86 146.11C478.466 146.786 464.281 147.027 455.86 147.11C447.149 147.195 438.012 145.63 429.36 144.61C417.088 143.163 400.839 140.141 388.86 137.11C378.927 134.597 365.635 130.965 356.36 126.61C347.998 122.684 340.461 119.86 332.86 114.61C329.158 112.052 321.058 104.711 318.36 101.11C317.592 100.084 316.86 97.11 316.86 97.11L315.86 97.61" stroke="black"/>
<path d="M439.39 107.3C428.658 105.09 420.302 102.632 418.922 101.28C418.681 101.043 417.885 100.658 417.154 100.424C414.739 99.6513 410.346 97.1888 408.63 95.646C407.701 94.8108 406.647 93.4763 406.288 92.6805L405.636 91.2336L406.966 88.6128L408.296 85.992L412.768 83.9724C427.634 77.2583 433.384 75.7162 471.157 68.3114C505.21 61.636 506.556 61.4498 520.654 61.4612C531.713 61.4701 540.869 62.2187 549.718 63.8376C552.303 64.3106 556.328 64.9469 558.661 65.2517C568.488 66.5352 572.502 67.421 575.249 68.9124C577.063 69.8971 578.28 71.4357 578.283 72.7453C578.284 73.5678 578.274 73.5713 574.041 74.2887C570.563 74.8782 548.727 80.1059 543.105 81.6953C538.149 83.0965 530.467 85.4687 513.572 90.8161C508.608 92.3875 494.767 96.5636 482.816 100.097L461.086 106.52L453.006 107.48L444.925 108.439L439.39 107.3Z" fill="#916F6F"/>
<path d="M890.397 207.138C887.563 229.972 879.379 251.87 867.644 268.016C855.909 284.162 841.584 293.232 827.822 293.232C814.059 293.232 801.986 284.162 794.258 268.016C786.53 251.87 783.78 229.972 786.613 207.138C789.447 184.305 797.631 162.407 809.366 146.261C821.102 130.115 835.426 121.045 849.189 121.045C862.951 121.045 875.024 130.115 882.752 146.261C890.48 162.407 893.23 184.305 890.397 207.138Z" fill="#280B0B"/>
<path d="M815.62 290.73L780.883 270.931" stroke="black"/>
<path d="M793.38 277.9L781.25 270.841L784.922 268.395C784.611 267.712 789.582 264.278 787.214 263.978C786.8 263.926 789.999 263.573 789.07 260.922C788.466 259.195 789.714 258.256 788.094 254.842C787.277 253.121 786.381 249.207 786.224 248.137C785.289 241.745 785.703 241.208 785.618 239.652L786.171 237.265L790.408 257.859C795.727 271.284 790.671 258.445 795.795 270.731C796.686 272.869 809.583 287.621 809.424 287.452C809.315 287.336 800.065 282.279 793.734 277.724L793.38 277.9Z" fill="#483737"/>
<path d="M879.457 208.1C877.158 226.291 870.518 243.737 860.998 256.6C851.477 269.463 839.856 276.69 828.69 276.69C817.525 276.69 807.73 269.463 801.461 256.6C795.191 243.737 792.96 226.291 795.259 208.1C797.558 189.909 804.198 172.463 813.719 159.6C823.239 146.737 834.86 139.51 846.026 139.51C857.191 139.51 866.986 146.737 873.256 159.6C879.525 172.463 881.756 189.909 879.457 208.1Z" fill="#E3DBDB"/>
<path d="M872.612 206.607C870.688 222.411 865.129 237.569 857.159 248.744C849.188 259.919 839.459 266.198 830.112 266.198C820.765 266.198 812.565 259.919 807.316 248.744C802.067 237.569 800.199 222.411 802.124 206.607C804.048 190.803 809.607 175.645 817.577 164.47C825.548 153.295 835.277 147.016 844.624 147.016C853.971 147.016 862.172 153.295 867.42 164.47C872.669 175.645 874.537 190.803 872.612 206.607Z" fill="black"/>
<path d="M847.802 208.582C847.25 213.114 845.656 217.461 843.37 220.666C841.084 223.871 838.294 225.672 835.614 225.672C832.933 225.672 830.581 223.871 829.076 220.666C827.571 217.461 827.035 213.114 827.587 208.582C828.139 204.049 829.733 199.702 832.019 196.497C834.305 193.292 837.095 191.491 839.776 191.491C842.456 191.491 844.808 193.292 846.313 196.497C847.819 199.702 848.354 204.049 847.802 208.582Z" fill="#E3DBDB"/>
<path d="M521.024 436.611C517.119 467 505.838 496.143 489.665 517.631C473.491 539.119 453.748 551.19 434.78 551.19C415.812 551.19 399.172 539.119 388.521 517.631C377.87 496.143 374.08 467 377.985 436.611C381.89 406.223 393.17 377.079 409.344 355.592C425.518 334.104 445.26 322.032 464.228 322.032C483.197 322.032 499.836 334.104 510.488 355.592C521.139 377.079 524.929 406.223 521.024 436.611Z" fill="#280B0B"/>
<path d="M417.93 547.9L370.056 521.549" stroke="black" stroke-width="1.3543"/>
<path d="M387.28 530.82L370.562 521.424L375.623 518.169C375.195 517.26 382.046 512.691 378.782 512.291C378.212 512.222 382.62 511.752 381.34 508.223C380.507 505.926 382.227 504.675 379.995 500.132C378.869 497.841 377.634 492.632 377.418 491.208C376.129 482.7 376.699 481.985 376.582 479.915L377.345 476.739L383.184 504.148C390.515 522.015 383.547 504.927 390.608 521.279C391.836 524.124 409.61 543.759 409.391 543.533C409.24 543.377 396.493 536.647 387.767 530.585L387.28 530.82Z" fill="#483737"/>
<path d="M505.945 437.924C502.777 462.134 493.625 485.353 480.504 502.473C467.382 519.592 451.365 529.21 435.977 529.21C420.588 529.21 407.089 519.592 398.448 502.473C389.807 485.353 386.732 462.134 389.9 437.924C393.068 413.713 402.22 390.494 415.341 373.375C428.463 356.255 444.48 346.638 459.868 346.638C475.257 346.638 488.756 356.255 497.397 373.375C506.038 390.494 509.113 413.713 505.945 437.924Z" fill="#E3DBDB"/>
<path d="M496.488 435.945C493.836 456.98 486.175 477.153 475.19 492.026C464.205 506.9 450.797 515.256 437.914 515.256C425.031 515.256 413.73 506.9 406.496 492.026C399.262 477.153 396.688 456.98 399.34 435.945C401.993 414.911 409.654 394.738 420.639 379.864C431.624 364.991 445.032 356.635 457.915 356.635C470.797 356.635 482.099 364.991 489.333 379.864C496.567 394.738 499.141 414.911 496.488 435.945Z" fill="#AC9393"/>
<path d="M462.024 437.28C461.263 443.312 459.066 449.098 455.915 453.363C452.765 457.629 448.92 460.025 445.225 460.025C441.53 460.025 438.289 457.629 436.214 453.363C434.14 449.098 433.402 443.312 434.162 437.28C434.923 431.247 437.12 425.462 440.27 421.196C443.421 416.93 447.266 414.534 450.961 414.534C454.656 414.534 457.897 416.93 459.972 421.196C462.046 425.462 462.784 431.247 462.024 437.28Z" fill="#E3DBDB"/>
<path d="M833.139 217.009H839.503L836.674 274.639H830.31L833.139 217.009Z" fill="#E3DBDB"/>
<path d="M838.013 200.401L842.875 204.507L803.535 246.715L798.672 242.609L838.013 200.401Z" fill="#E3DBDB"/>
<path d="M871.954 165.753L876.817 169.859L837.476 212.067L832.614 207.961L871.954 165.753Z" fill="#E3DBDB"/>
<path d="M836.678 142.059H843.042L840.213 199.689H833.849L836.678 142.059Z" fill="#E3DBDB"/>
<path d="M835.268 206.761H840.38L869.916 241.763H864.804L835.268 206.761Z" fill="#E3DBDB"/>
<path d="M804.508 174.94H809.62L839.157 208.174H834.045L804.508 174.94Z" fill="#E3DBDB"/>
<path d="M420.83 547.96L375.16 521.978" stroke="black" stroke-width="1.3135"/>
<path d="M391.59 531.12L375.642 521.856L380.47 518.646C380.061 517.75 386.597 513.244 383.483 512.851C382.939 512.782 387.144 512.319 385.923 508.84C385.129 506.574 386.769 505.341 384.64 500.862C383.566 498.602 382.387 493.466 382.181 492.062C380.952 483.674 381.496 482.969 381.384 480.927L382.112 477.796L387.682 504.822C394.675 522.439 388.028 505.59 394.764 521.713C395.936 524.518 412.891 543.878 412.683 543.655C412.54 543.501 400.379 536.865 392.055 530.888L391.59 531.12Z" fill="#483737"/>
<path d="M504.763 439.539C501.741 463.412 493.011 486.306 480.494 503.186C467.977 520.067 452.698 529.55 438.019 529.55C423.339 529.55 410.462 520.067 402.219 503.186C393.976 486.306 391.043 463.412 394.065 439.539C397.088 415.667 405.818 392.773 418.335 375.893C430.852 359.012 446.13 349.529 460.81 349.529C475.489 349.529 488.367 359.012 496.61 375.893C504.853 392.773 507.786 415.667 504.763 439.539Z" fill="#E3DBDB"/>
<path d="M495.759 437.568C493.229 458.308 485.92 478.198 475.441 492.863C464.962 507.528 452.171 515.767 439.882 515.767C427.592 515.767 416.812 507.528 409.911 492.863C403.01 478.198 400.555 458.308 403.085 437.568C405.615 416.828 412.924 396.938 423.403 382.273C433.882 367.608 446.673 359.369 458.962 359.369C471.251 359.369 482.032 367.608 488.933 382.273C495.834 396.938 498.289 416.828 495.759 437.568Z" fill="black"/>
<path d="M463.141 440.164C462.416 446.112 460.32 451.816 457.314 456.022C454.309 460.228 450.641 462.591 447.116 462.591C443.592 462.591 440.5 460.228 438.52 456.022C436.541 451.816 435.837 446.112 436.563 440.164C437.288 434.215 439.384 428.511 442.39 424.305C445.395 420.099 449.064 417.736 452.588 417.736C456.113 417.736 459.205 420.099 461.184 424.305C463.163 428.511 463.867 434.215 463.141 440.164Z" fill="#E3DBDB"/>
<path d="M442.453 452.632H450.82L447.102 528.257H438.735L442.453 452.632Z" fill="#E3DBDB"/>
<path d="M448.847 430.822L455.24 436.21L403.518 491.599L397.125 486.211L448.847 430.822Z" fill="#E3DBDB"/>
<path d="M493.445 385.376L499.838 390.764L448.117 446.154L441.725 440.766L493.445 385.376Z" fill="#E3DBDB"/>
<path d="M447.11 354.271H455.477L451.759 429.896H443.392L447.11 354.271Z" fill="#E3DBDB"/>
<path d="M445.243 439.176H451.964L490.797 485.108H484.076L445.243 439.176Z" fill="#E3DBDB"/>
<path d="M404.775 397.424H411.496L450.328 441.037H443.607L404.775 397.424Z" fill="#E3DBDB"/>
<path d="M560.03 223.98C564.546 225.983 571.013 227.863 575.94 228.223C578.709 228.425 582.428 227.787 585.132 227.162C588.858 226.301 593.633 224.414 597.153 222.919C601.083 221.251 607.24 219.91 609.881 216.555C610.757 215.444 610.747 213.361 610.942 211.959C611.235 209.855 611.699 206.973 611.296 204.888C611.007 203.397 610.064 201.522 609.174 200.292C607.899 198.528 605.762 196.419 603.871 195.342C599.934 193.099 593.716 192.398 589.375 191.1C585.55 189.955 580.64 187.221 576.647 187.21C574.432 187.205 571.577 188.382 569.576 189.332C565.643 191.198 560.673 194.424 557.555 197.463C556.248 198.737 554.662 200.705 554.019 202.413C552.893 205.406 552.88 209.823 552.959 213.02C553.012 215.165 552.857 218.288 554.019 220.091C555.182 221.894 558.067 223.109 560.03 223.98Z" stroke="black"/>
<path d="M576.33 228.54L577.351 241.298C577.351 241.298 571.262 243.624 568.512 243.773C566.579 243.877 563.989 243.311 562.148 242.712C561.02 242.345 559.406 241.826 558.613 240.944C558.006 240.271 557.678 239.013 557.552 238.116C557.182 235.482 558.259 229.277 558.259 229.277L559.175 223.909" stroke="black"/>
<path d="M560.52 224C560.52 224 575.776 224.685 580.179 223.975C584.554 223.27 590.089 220.817 593.968 218.672C597.68 216.618 602.076 212.966 605.281 210.187C607.095 208.614 610.938 204.53 610.938 204.53" stroke="black"/>
<path d="M561.89 223.31C559.565 223.045 556.336 221.272 555.317 219.702C554.278 218.099 554.086 216.322 554.288 210.158C554.509 203.389 554.97 201.953 557.961 198.721C562.148 194.2 570.733 189.063 575.756 188.075C578.028 187.628 579.753 187.988 585.255 190.056C587.614 190.942 592.187 192.316 595.418 193.109C599.012 193.991 602.055 194.923 603.255 195.509C605.721 196.712 609.002 199.953 610.217 202.385L611.077 204.105L608.739 206.479C604.26 211.026 597.646 216.205 593.184 218.659C590.245 220.275 584.855 222.371 582.002 223.008C579.844 223.49 578.356 223.564 571.503 223.532C567.111 223.512 562.785 223.412 561.89 223.31Z" fill="black"/>
<path d="M573.43 227.14C570.592 226.623 565.195 225.207 564.886 224.899C564.815 224.828 568.273 224.777 572.569 224.786C580.064 224.802 580.492 224.772 583.144 224.044C587.816 222.762 593.121 220.399 597.09 217.831C600.152 215.851 604.971 211.907 608.254 208.694L611.285 205.728L611.276 207.484C611.264 209.812 610.551 215.057 610.143 215.819C609.224 217.536 607.1 218.682 599.202 221.722C584.594 227.343 579.932 228.324 573.43 227.14Z" fill="black"/>
<path d="M564.259 242.441C561.25 241.64 559.829 240.861 559.231 239.686C558.589 238.424 558.697 234.624 559.527 229.252C560.187 224.977 560.262 224.726 560.838 224.868C561.174 224.951 562.807 225.499 564.467 226.088C567.676 227.225 573.284 228.601 574.758 228.613C575.246 228.617 575.796 228.718 575.981 228.837C576.269 229.024 577.451 240.667 577.205 240.896C577.16 240.938 575.793 241.393 574.166 241.908C570.16 243.177 567.551 243.317 564.259 242.441Z" fill="black"/>
<path d="M301.79 99.205C299.991 101.055 295.906 100.503 293.425 101.213C290.678 101.998 287.239 104.007 284.391 104.224C280.836 104.495 276.031 103.43 272.68 102.216C270.607 101.466 267.457 100.425 266.322 98.5358C264.874 96.1248 264.984 91.7941 265.988 89.167C267.28 85.7849 271.535 82.741 274.353 80.4674C278.667 76.9862 284.536 70.7045 290.079 70.764C292.111 70.7858 294.367 72.9712 295.767 74.4446C297.842 76.6288 299.668 80.3462 300.786 83.1442C301.897 85.9251 303.084 89.8533 303.128 92.8476C303.157 94.7964 303.149 97.8076 301.79 99.205Z" stroke="black"/>
<path d="M278.81 103.17C278.81 103.17 277.404 114.349 279.314 117.997C279.878 119.074 281.361 119.563 282.34 119.682C284.113 119.897 286.536 119.032 288.139 117.997C289.107 117.372 290.514 116.298 290.913 114.964C292.045 111.18 289.652 101.485 289.652 101.485L290.156 103.507" stroke="black" stroke-width="0.87115"/>
<path d="M277.83 102.96C273.037 101.932 267.93 99.7342 266.987 98.2944C265.57 96.131 265.724 90.8934 267.284 88.2554C268.339 86.4702 270.223 84.691 276.97 79.1087C283.391 73.7956 285.834 72.2192 288.506 71.6645C290.223 71.3081 290.487 71.3385 291.823 72.0477C297.587 75.1054 303.595 88.8617 302.278 95.9857C301.779 98.6869 300.982 99.4141 298.046 99.8485C296.773 100.037 294.753 100.422 293.557 100.704C292.361 100.986 290.957 101.261 290.438 101.313C289.919 101.366 289.317 101.638 289.1 101.917C287.995 103.339 282.125 103.882 277.83 102.96Z" fill="black"/>
<path d="M281.24 118.72C280.554 118.412 279.972 117.814 279.693 117.128C279.039 115.525 278.746 111.565 279.007 107.877L279.236 104.653H282.796C285.418 104.653 286.731 104.499 287.784 104.068C288.57 103.746 289.268 103.482 289.336 103.482C289.714 103.482 290.349 108.503 290.359 111.573C290.37 115.086 290.354 115.164 289.377 116.185C287.267 118.39 283.277 119.634 281.24 118.72Z" fill="black"/>
<path d="M169.86 304.11L227.61 250.86L209.11 266.36L242.61 282.11L260.36 270.86L192.61 317.11L231.86 290.11L206.11 279.11L200.86 282.36L192.61 288.36L182.36 295.61L169.86 304.11Z" stroke="black"/>
<path d="M207.61 279.86L208.61 266.61" stroke="black"/>
<path d="M503.36 321.61C503.36 321.61 534.919 296.88 549.36 287.61C571.282 273.538 603.365 259.568 625.36 245.61C665.996 219.823 717.169 180.896 755.36 151.61C774.991 136.556 797.61 111.398 819.36 99.61C834.874 91.2016 875.36 81.61 875.36 81.61" stroke="black"/>
<path fill-rule="evenodd" clip-rule="evenodd" d="M307.69 107.24L231.94 160.24L200.19 192.24L192.94 206.99L193.94 220.49L201.19 230.24L218.19 245.74C218.19 245.74 247.448 264.042 260.94 269.99C266.93 272.631 275.295 275.343 281.69 276.74C294.378 279.512 311.711 281.287 324.69 281.74C340.972 282.308 362.752 281.076 378.94 279.24C398.103 277.066 423.432 272.22 442.19 267.74C465.478 262.178 496.249 253.337 518.69 244.99C531.873 240.087 549.314 232.867 561.44 225.74C578.122 215.935 598.282 199.576 613.19 187.24C620.879 180.878 637.69 164.74 637.69 164.74L641.19 149.49L637.44 130.49L633.69 115.74C633.69 115.74 605.67 124.251 593.69 127.99C577.388 133.078 556.006 141.09 539.44 145.24C529.452 147.742 515.899 150.145 505.69 151.49C489.653 153.603 468.1 153.949 451.94 153.24C434.769 152.487 412.203 150.038 395.44 146.24C381.364 143.051 362.581 138.375 349.19 132.99C343.525 130.712 336.405 126.666 331.19 123.49C326.819 120.828 317.19 113.74 317.19 113.74L312.69 106.99L311.44 105.24L307.69 107.24Z" fill="url(#paint0_linear_745_2083)" stroke="black"/>
<path d="M439.39 107.3C428.658 105.09 420.302 102.632 418.922 101.28C418.681 101.043 417.885 100.658 417.154 100.424C414.739 99.6513 410.346 97.1888 408.63 95.646C407.701 94.8108 406.647 93.4763 406.288 92.6805L405.636 91.2336L406.966 88.6128L408.296 85.992L412.768 83.9724C427.634 77.2583 433.384 75.7162 471.157 68.3114C505.21 61.636 506.556 61.4498 520.654 61.4612C531.713 61.4701 540.869 62.2187 549.718 63.8376C552.303 64.3106 556.328 64.9469 558.661 65.2517C568.488 66.5352 572.502 67.421 575.249 68.9124C577.063 69.8971 578.28 71.4357 578.283 72.7453C578.284 73.5678 578.274 73.5713 574.041 74.2887C570.563 74.8782 548.727 80.1059 543.105 81.6953C538.149 83.0965 530.467 85.4687 513.572 90.8161C508.608 92.3875 494.767 96.5636 482.816 100.097L461.086 106.52L453.006 107.48L444.925 108.439L439.39 107.3Z" fill="url(#paint1_linear_745_2083)"/>
<path d="M307.27 492.1C298.066 481.996 298.352 468.152 307.84 464.43C313.652 462.151 328.204 458.173 328.675 458.735C328.899 459.001 329.485 465.646 329.978 473.502C330.997 489.74 330.418 490.947 320.282 493.719C312.269 495.91 310.545 495.696 307.27 492.1Z" fill="#333333" fill-opacity="0.84666"/>
<path d="M247.45 497.62C234.616 493.519 221.999 489.047 219.413 487.682C215.085 485.397 209.563 476.683 211.897 475.821C212.448 475.618 221.908 476.65 232.92 478.115C256.41 481.239 261.848 483.537 268.309 493.066C272.585 499.372 274.308 505.252 271.845 505.129C271.261 505.099 260.284 501.721 247.45 497.62Z" fill="#333333" fill-opacity="0.84666"/>
<path d="M148.46 486.38C107.881 466.026 70.7262 442.649 48.6142 423.559C42.5349 418.311 40.8667 415.86 39.5026 410.173C38.5842 406.345 38.1512 402.894 38.5405 402.505C38.9297 402.115 45.8427 406.831 53.9025 412.985C92.5545 442.492 124.496 459.716 160.632 470.535L173.508 474.39L177.249 486.886C179.306 493.759 180.99 499.734 180.99 500.164C180.99 502.249 175.26 499.821 148.463 486.38L148.46 486.38Z" fill="#333333" fill-opacity="0.84666"/>
<path d="M715.919 237.86C713.016 236.693 705.714 224.54 707.163 223.285C708.285 222.313 747.358 196.193 748.378 195.733C750.002 195 738.838 226.846 735.518 232.419C733.14 236.409 731.299 237.735 727.195 238.414C720.684 239.49 719.878 239.451 715.92 237.859L715.919 237.86Z" fill="url(#paint2_linear_745_2083)"/>
<path d="M220.08 284.15C209.164 279.635 209.12 279.595 209.12 274.313C209.12 271.006 209.787 269.01 210.892 269.01C211.867 269.01 219.207 272.127 227.202 275.937L241.74 282.864L236.931 285.836C234.286 287.471 231.878 288.781 231.581 288.746C231.284 288.712 226.108 286.643 220.08 284.15Z" fill="#333333" fill-opacity="0.84666"/>
<path d="M715.82 237.88C712.489 236.539 706.286 225.924 707.596 223.805C708.899 221.696 746.671 196.573 747.417 197.319C748.696 198.599 740.599 222.978 736.462 230.3C733.265 235.959 731.398 237.742 727.95 238.432C722.313 239.559 719.694 239.44 715.819 237.88L715.82 237.88Z" fill="black" fill-opacity="0.84666"/>
<path d="M223.97 456.28C187.096 447.808 173.765 444.2 173.765 442.692C173.765 440.353 195.29 412.799 210.048 396.246C232.581 370.973 251.469 355.74 290.193 331.612C344.452 297.804 381.849 279.472 402.163 276.724C423.646 273.818 468.752 262.516 501.628 251.8C513.554 247.913 523.661 245.082 524.088 245.509C524.515 245.936 525.983 245.687 527.351 244.955C530.08 243.494 530.249 243.823 533.646 257.234L535.499 264.547L514.199 276.927C486.867 292.813 467.385 305.679 452.656 317.57C446.203 322.78 438.248 328.693 434.978 330.711C431.708 332.729 418.85 344.875 406.405 357.704L383.778 381.028L358.628 379.468C344.796 378.61 322.047 377.908 308.075 377.908C261.067 377.908 236.353 386.056 210.346 410.13C205.543 414.576 198.495 422.332 194.683 427.367C186.316 438.418 185.898 437.873 208.207 444.953C244.424 456.445 265.78 455.976 293.269 443.083C305.159 437.506 319.74 426.708 352.889 398.93C367.165 386.967 373.963 382.152 376.577 382.152C378.593 382.152 380.243 382.642 380.243 383.242C380.243 385.844 353.844 410.038 335.384 424.354C306.171 447.008 291.927 454.27 267.106 459.164C260.494 460.467 254.131 461.741 252.964 461.995C251.797 462.248 238.751 459.677 223.973 456.282L223.97 456.28Z" fill="url(#paint3_linear_745_2083)"/>
<path d="M662.78 141.37C654.542 124.578 647.673 115.622 637.386 108.259L631.131 103.781L607.863 112.892C549.058 135.917 516.874 143.649 472.053 145.521C431.373 147.22 378.24 136.673 345.873 120.475C333.452 114.258 319.03 102.916 319.706 99.8966C319.939 98.8546 327.13 92.5383 335.687 85.8606C364.924 63.0406 404.707 46.4486 449.527 38.3786C473.571 34.0501 475.141 33.9439 504.681 34.6495C534.294 35.3569 554.436 37.6161 584.337 43.5837C593.651 45.4425 614.879 52.8854 621.61 56.6527C622.811 57.3254 617.844 60.0708 607.947 64.2043L592.395 70.6991L589.497 66.0105C587.005 61.9793 585.268 61.0207 577.106 59.1732C552.192 53.5339 509.99 52.8519 479.224 57.5915C449.834 62.1193 408.99 74.5665 402.62 80.9375C397.567 85.9906 397.589 88.1617 402.749 93.3205C408.246 98.8175 420.54 104.498 433.795 107.663C450.169 111.573 457.144 110.187 518.823 90.7655C557.671 78.5325 572.98 75.3935 602.262 73.6575C616.652 72.8041 644.017 72.4373 663.073 72.8425C693.447 73.4882 699.386 73.9988 711.218 76.9813C731.786 82.1659 743.946 90.3783 741.67 97.5483C740.807 100.267 740.217 100.161 726.418 94.8102C698.533 83.9972 690.104 82.1372 665.194 81.3062C651.54 80.8504 637.715 81.1979 630.334 82.1825C610.279 84.8576 580.389 92.8865 556.3 102.071C543.855 106.815 532.786 111.012 531.702 111.397C530.618 111.783 530.073 112.439 530.49 112.856C530.907 113.273 541.54 109.75 554.118 105.026C598.914 88.203 622.151 83.378 658.828 83.283C681.247 83.2249 684.841 83.5664 697.012 86.9102C704.401 88.9404 717.317 93.2732 725.714 96.5386C740.445 102.267 740.896 102.569 738.573 105.136C737.249 106.599 722.106 118.4 704.922 131.36C687.738 144.32 672.979 155.453 672.125 156.1C671.095 156.88 667.943 151.92 662.768 141.372L662.78 141.37Z" fill="url(#paint4_linear_745_2083)"/>
<path d="M435.39 150.94C412.611 149.229 376.181 141.367 354.227 133.423C340.215 128.353 318.382 114.46 314.828 108.353C311.794 103.14 311.789 102.934 314.668 101.829C316.253 101.221 319.519 103.358 325.018 108.604C342.529 125.306 378.976 138.297 428.498 145.488C453.517 149.12 491.173 147.912 519.887 142.556C523.892 141.809 524.483 142.083 524.483 144.684C524.483 146.327 524.006 147.69 523.423 147.715C522.839 147.74 515.998 148.682 508.22 149.809C495.315 151.679 453.802 152.324 435.388 150.941L435.39 150.94Z" fill="black" fill-opacity="0.84666"/>
<path d="M607.5 197.48C605.373 195.13 605.75 194.532 613.291 188.283C617.727 184.608 625.299 177.942 630.118 173.472C638.109 166.059 639.028 164.599 640.573 156.859C642.068 149.364 641.896 146.625 639.096 133.382C637.353 125.137 635.398 117.534 634.751 116.489C633.561 114.563 628.682 115.948 557.408 138.444C546.349 141.935 534.671 145.212 531.457 145.726C526.32 146.547 525.672 146.351 526.108 144.109C526.484 142.18 530.12 140.613 541.024 137.683C560.868 132.351 574.713 127.677 604.198 116.356C618.095 111.02 630.066 106.655 630.799 106.655C633.132 106.655 644.689 116.164 649.161 121.763C652.764 126.273 668.732 156.007 668.732 158.205C668.732 159.965 640.893 180.929 626.6 189.933C617.817 195.466 610.438 199.993 610.202 199.993C609.966 199.993 608.751 198.862 607.5 197.48Z" fill="black" fill-opacity="0.84666"/>
<path d="M582.55 354.31L579.093 353.345L584.671 347.128C587.739 343.708 599.477 334.843 610.755 327.427C640 308.197 646.708 301.352 649.649 287.739C650.953 281.701 662.29 269.498 678.067 257.145C687.954 249.404 690.054 246.965 693.438 239.289C696.882 231.478 701.52 225.577 704.291 225.48C704.789 225.463 706.552 228.333 708.209 231.858C711.783 239.463 716.083 241.59 725.66 240.493C729.355 240.07 732.377 239.959 732.377 240.247C732.377 240.535 731.102 243.745 729.544 247.381C723.013 262.616 720.671 264.581 670.263 297.14C612.88 334.203 592.213 348.603 593.052 350.938C593.397 351.899 592.472 353.331 590.996 354.12C588.043 355.701 587.573 355.712 582.55 354.31Z" fill="url(#paint5_linear_745_2083)"/>
<path d="M522.6 405.4C520.318 367.099 506.405 338.199 484.89 327.074C476.333 322.649 474.785 322.326 462.491 322.393C452.97 322.445 449.832 322.05 451.246 320.979C452.324 320.161 457.129 316.451 461.923 312.733C472.08 304.858 493.994 290.867 518.371 276.695L535.59 266.685L536.551 272.376C537.08 275.506 537.076 282.138 536.544 287.115L535.575 296.163L519.284 308.277C510.324 314.94 503.31 320.708 503.697 321.095C504.084 321.482 511.279 316.691 519.686 310.449C528.093 304.207 535.078 299.233 535.209 299.397C535.34 299.561 534.598 313.376 533.561 330.099C532.211 351.869 532.097 362.087 533.158 366.076C534.904 372.643 542.704 381.011 547.08 381.011C554.185 381.011 578.227 363.508 578.227 358.334C578.227 357.583 580.979 356.969 584.344 356.969C589.727 356.969 592.74 355.417 609.446 344.041C619.888 336.931 642.432 322.796 659.544 312.63C676.656 302.464 699.081 287.925 709.378 280.319L728.1 266.491L738.581 245.564C746.314 230.123 750.397 219.795 754.154 206.165C756.955 196.005 759.246 187.244 759.246 186.696C759.246 186.148 746.475 194.387 730.866 205.005C715.257 215.623 702.132 223.957 701.7 223.525C701.268 223.093 702.648 218.416 704.766 213.132C706.884 207.848 709.667 199.295 710.951 194.125L713.285 184.725L737.327 166.387C750.55 156.301 767.051 143.031 773.996 136.896C814.358 101.247 819.276 98.322 856.867 87.605C866.413 84.8835 874.605 82.2536 875.071 81.7609C877.39 79.3122 841.129 89.5646 827.297 95.2679C812.38 101.419 805.741 106.335 769.648 137.951C761.983 144.665 745.847 157.612 733.791 166.72L711.871 183.281L710.633 179.001C708.823 172.746 702.731 167.636 692.789 164.036L684.023 160.862L700.069 148.111C738.603 117.488 764.464 99.1993 794.595 81.2633L826.173 62.4663L840.44 65.589C862.122 70.3344 867.456 72.3747 873.489 78.23C880.74 85.2668 882.228 91.25 883.256 117.487C884.301 144.16 883.775 146.015 877.622 137.361C849.778 98.197 801.049 131.542 787.528 199.012C784.916 212.046 784.578 241.704 786.923 252.052C789.067 261.512 788.586 263.784 783.453 268.429C781.844 269.885 780.844 271.589 781.231 272.216C782.066 273.568 767.409 280.641 756.419 284.19C752.141 285.571 734.958 294.451 718.235 303.922C701.512 313.393 677.329 326.766 664.495 333.639C646.593 343.225 533.335 412.861 525.055 419.374C523.959 420.235 523.236 416.124 522.597 405.398L522.6 405.4Z" fill="url(#paint6_linear_745_2083)"/>
<path d="M544.01 377.89C541.493 377.033 539.134 374.384 537.045 370.07C533.899 363.57 533.893 363.429 535.542 331.145C536.452 313.324 537.557 298.16 537.998 297.447C539.612 294.836 555.364 285 573.979 274.98C614.082 253.395 624.699 247.277 641.154 236.274C659.175 224.224 688.13 203.658 701.612 193.332C708.087 188.373 709.74 187.625 709.726 189.662C709.692 194.368 704.025 210.436 695.938 228.752L687.925 246.899L675.852 256.526C659.517 269.553 649.521 280.343 648.223 286.353C645.33 299.743 638.003 307.344 611.08 324.886C588.378 339.678 581.475 345.826 577.433 354.854C573.797 362.977 569.139 367.734 559.129 373.547C549.655 379.049 548.439 379.398 544.01 377.89Z" fill="url(#paint7_linear_745_2083)"/>
<path d="M538.63 281.59C538.63 274.953 538.313 268.675 537.925 267.639C537.461 266.401 542.913 262.536 553.835 256.36C562.973 251.193 570.316 246.335 570.152 245.566C569.988 244.797 571.7 243.797 573.957 243.346C577.623 242.613 578.107 241.881 578.498 236.484L578.935 230.442L592.705 225.472C607.299 220.203 612.133 217.137 612.227 213.09C612.265 211.466 618.534 206.667 630.258 199.288C640.144 193.065 655.713 182.406 664.857 175.6C674.001 168.794 682.41 163.226 683.542 163.226C688.082 163.226 700.967 169.125 704.514 172.827C709.853 178.399 710.725 184.501 706.599 187.42C704.832 188.67 694.851 195.927 684.42 203.547C662.211 219.769 630.29 241.585 619.299 248.053C615.054 250.551 600.735 258.353 587.479 265.39C565.36 277.132 552.697 284.371 542.518 291.092L538.629 293.66V281.592L538.63 281.59Z" fill="url(#paint8_linear_745_2083)"/>
<path d="M543.67 35.165C536.717 34.1546 519.369 33.1214 505.118 32.8689C490.867 32.6164 480.327 31.9584 481.696 31.4068C483.065 30.8551 497.411 24.9871 513.576 18.3668C549.987 3.45377 554.879 1.99377 568.235 2.04777C578.086 2.08743 625.732 8.02197 627.089 9.37837C627.414 9.7032 613.849 15.5904 596.945 22.4614C580.041 29.3324 565.999 35.4954 565.739 36.1574C565.132 37.7064 559.367 37.4476 543.67 35.1664V35.165Z" fill="url(#paint9_linear_745_2083)"/>
<path d="M743.69 94.704C743.69 83.755 719.018 74.067 683.586 71.102C672.336 70.1606 652.053 69.9223 631.322 70.4877C612.689 70.996 597.764 71.0915 598.155 70.7C598.546 70.3085 605.064 67.4091 612.637 64.257C623.584 59.7011 626.978 58.8309 629.187 60.0133C630.716 60.8314 631.967 60.9329 631.967 60.2387C631.967 59.5446 624.178 55.6517 614.658 51.5879C598.902 44.8619 577.168 38.8519 568.398 38.7959C566.374 38.783 565.492 38.271 566.276 37.565C567.015 36.9002 582.575 30.3342 600.854 22.974L634.088 9.59204L661.665 9.79074C692.78 10.015 703.211 11.5957 746.298 22.6157C778.964 30.9706 793.824 35.5037 801.814 39.5537C808.805 43.0962 817.228 49.6117 817.228 51.4767C817.228 53.5757 806.856 56.8837 804.55 55.5202C803.356 54.814 786.15 48.829 766.316 42.2202C732.422 30.9272 727.834 29.7792 690.014 23.1352C647.021 15.5822 644.881 15.5099 629.301 21.0842C625.213 22.547 624.683 23.1163 626.658 23.9228C628.017 24.4777 657.928 33.299 693.126 43.5258L757.123 62.1198L757.83 70.8197L758.537 79.5197L751.113 88.9816C744.528 97.3727 743.688 98.0203 743.688 94.7044L743.69 94.704ZM632.99 29.422C632.057 28.4883 602.272 43.365 602.272 44.765C602.272 45.372 609.34 42.3242 617.977 37.992C626.615 33.6598 633.371 29.8035 632.989 29.4223L632.99 29.422Z" fill="url(#paint10_linear_745_2083)"/>
<path fill-rule="evenodd" clip-rule="evenodd" d="M804.86 56.1531L727.048 30.5081L650.39 17.2581L642.819 18.2044L625.784 22.9364L759.224 61.7384L759.526 78.9394" fill="url(#paint11_linear_745_2083)"/>
<path d="M804.86 56.1531L727.048 30.5081L650.39 17.2581L642.819 18.2044L625.784 22.9364L759.224 61.7384L759.526 78.9394" stroke="black"/>
<path d="M239.81 450.6C223.829 448.398 196.073 440.157 192.323 436.5C188.936 433.197 215.127 406.318 231.249 396.551C252.163 383.881 271.63 379.852 310.735 380.099C326.4 380.198 346.18 380.675 354.69 381.16L370.162 382.04L349.74 399.105C319.647 424.252 303.662 436.056 292.463 441.403C274.931 449.774 256.801 452.941 239.81 450.6Z" fill="url(#paint12_linear_745_2083)"/>
<path d="M12.818 332.9C8.38795 326.926 5.95895 322.052 5.32265 317.861C4.01515 309.248 5.5319 291.377 8.21725 283.756C11.094 275.593 21.2622 262.08 37.0942 245.382L49.6413 232.149L51.5709 242.75C55.4694 264.168 52.7525 296.37 45.6327 313.133C43.1562 318.964 22.9317 341.739 20.2307 341.739C19.7583 341.739 16.4227 337.761 12.818 332.9Z" fill="url(#paint13_linear_745_2083)"/>
<path d="M152.7 465.89C120.947 455.245 89.5109 437.639 53.8889 410.55C44.2671 403.233 36.0919 397.549 35.7219 397.919C35.3519 398.289 35.7016 401.652 36.4992 405.391C37.2967 409.131 37.7627 412.377 37.5346 412.606C36.0991 414.041 20.6906 394.421 15.6606 384.751C9.92025 373.717 9.73595 372.995 12.0185 370.472C14.2885 367.963 14.2559 367.545 11.4368 362.984C8.41241 358.09 7.58161 351.438 9.59821 348.263C10.3588 347.065 13.9814 349.839 21.2442 357.178C49.0022 385.231 110.585 422.994 154.964 439.175L169.246 444.383L169.106 453.76C169.029 458.918 169.513 464.887 170.18 467.026C171.76 472.089 171.062 472.043 152.703 465.889L152.7 465.89Z" fill="url(#paint14_linear_745_2083)"/>
<path d="M148.32 434.36C101.474 415.701 48.6567 382.353 21.0497 354.001C11.4546 344.148 8.25367 339.782 5.84667 333.263C1.61497 321.802 1.89746 316.9 6.25097 326.251C12.4909 339.653 41.752 367.21 69.266 385.595C95.526 403.143 132.168 421.26 157.654 429.297C166.988 432.24 174.87 434.835 175.17 435.063C175.975 435.675 171.199 442.641 169.996 442.61C169.431 442.596 159.677 438.883 148.321 434.36H148.32Z" fill="url(#paint15_linear_745_2083)"/>
<path d="M251.7 535.89C225.692 532.695 183.355 516.297 128.66 488.234C83.5286 465.077 51.8806 442.896 29.3206 418.614C17.5956 405.993 11.8736 395.853 10.5526 385.356L9.66309 378.285L15.6115 388.892C22.9425 401.964 42.6385 422.015 63.1125 437.249C113.483 474.73 191.732 512.61 238.972 522.379C278.576 530.57 321.268 528.675 362.162 516.91C368.859 514.984 375.382 513.007 376.659 512.517C377.936 512.027 378.981 512.284 378.981 513.088C378.981 516.977 350.074 527.284 324.47 532.524C303.991 536.715 270.88 538.247 251.702 535.891L251.7 535.89Z" fill="url(#paint16_linear_745_2083)"/>
<path d="M267.96 525.1C244.126 522.007 226.087 517.909 206.728 511.19C194.742 507.03 184.8 503.427 184.633 503.183C184.466 502.939 181.218 493.217 177.414 481.579C170.768 461.248 169.041 449.772 172.158 446.655C172.768 446.045 177.391 446.754 182.43 448.231C187.469 449.708 204.897 453.925 221.159 457.601L250.726 464.284L264.293 461.776C281.621 458.573 299.947 451.564 312.914 443.18C328.77 432.928 358.641 408.689 371.874 395.336C383.011 384.098 388.662 380.795 390.758 384.298C391.107 384.882 388.912 392.768 385.88 401.822C382.848 410.877 379.422 424.56 378.266 432.228C375.389 451.318 375.476 485.341 378.433 497.112C379.69 502.116 380.393 507.057 379.996 508.091C379.183 510.21 354.435 517.696 337.257 521.02C314.588 525.407 284.14 527.199 267.961 525.099L267.96 525.1ZM273.003 511.882C280.511 507.864 271.255 487.984 258.903 481.596C253.533 478.819 220.84 473.819 207.786 473.777C197.442 473.745 195.129 475.117 195.129 481.288C195.129 493.824 234.966 512.618 262.751 513.191C266.885 513.277 271.499 512.688 273.004 511.882L273.003 511.882ZM346.198 504.96C358.116 501.941 368.183 499.155 368.569 498.769C368.955 498.383 368.541 491.796 367.65 484.13C366.759 476.465 366.238 464.309 366.493 457.118C366.796 448.555 366.438 444.044 365.456 444.046C364.631 444.048 359.858 445.664 354.849 447.638C349.84 449.611 337.787 453.427 328.064 456.118C307.398 461.838 302.103 464.264 299.946 468.998C295.873 477.939 299.535 486.789 312.885 500.265C318.472 505.905 323.377 510.503 323.785 510.484C324.193 510.465 334.278 507.98 346.196 504.961L346.198 504.96Z" fill="url(#paint17_linear_745_2083)"/>
<path d="M253.15 510.32C220.609 504.927 189.269 485.83 198.238 476.86C199.171 475.927 201.907 475.163 204.318 475.163C208.052 475.163 208.969 475.903 210.51 480.166C211.602 483.187 214.376 486.505 217.512 488.542C222.399 491.717 263.925 505.586 271.406 506.542C274.693 506.962 274.737 507.097 272.365 509.457C269.664 512.145 265.339 512.34 253.15 510.32Z" fill="url(#paint18_linear_745_2083)"/>
<path d="M347.51 492.36L332.307 488.699L332.295 480.16C332.288 475.464 331.931 468.44 331.501 464.551L330.72 457.48L347.226 452.097C356.304 449.136 363.897 446.909 364.098 447.147C364.299 447.386 364.795 458.558 365.199 471.976C365.734 489.761 365.497 496.324 364.323 496.196C363.437 496.1 355.871 494.374 347.51 492.36Z" fill="url(#paint19_linear_745_2083)"/>
<path d="M318.42 503C313.926 498.364 313.787 496.375 317.956 496.375C319.137 496.375 322.808 495.066 326.116 493.465L332.129 490.554L348.129 494.408L364.129 498.262L345.744 502.938C335.632 505.51 326.37 507.631 325.162 507.652C323.954 507.672 320.92 505.579 318.42 503Z" fill="url(#paint20_linear_745_2083)"/>
<path d="M26.8186 348.41L22 343.438L32.765 332.5C44.346 320.733 47.917 314.877 51.547 301.702C54.7219 290.178 55.9458 259.197 53.8047 244.554C51.2956 227.394 51.5905 227.62 42.9087 236.195C38.7377 240.314 35.3252 243 35.3252 242.163C35.3252 239.029 66.3062 209.346 81.2872 198.127C106.174 179.489 126.735 170.224 196.287 146.309C211.311 141.143 229.766 134.163 237.299 130.797C262.728 119.435 270.007 117.589 281.732 119.527L287.013 120.4L259.104 139.909C235.837 156.173 228.255 162.407 213.518 177.392C203.796 187.277 170.384 219.722 139.272 249.49C108.16 279.258 71.5734 314.812 57.9704 328.498C44.3674 342.184 32.8774 353.382 32.4384 353.382C31.9994 353.382 29.4716 351.144 26.8213 348.41L26.8186 348.41Z" fill="url(#paint21_linear_745_2083)"/>
<path d="M154.71 426.33C129.689 417.926 95.4638 400.695 70.6768 384.025C58.7288 375.989 38.0118 360.161 35.5328 357.174C34.2135 355.584 41.4444 347.741 73.1478 316.373C94.7348 295.015 126.079 264.579 142.802 248.737C159.525 232.895 178.227 215.117 184.363 209.231C190.499 203.345 194.991 199.801 194.348 201.356C193.705 202.912 192.93 207.723 192.626 212.047C192.108 219.45 192.407 220.329 197.732 227.066C203.232 234.024 219.918 249.133 223.67 250.551C224.889 251.012 223.579 252.897 219.879 256.004C216.768 258.616 210.404 264.571 205.737 269.238C201.069 273.906 191.045 283.392 183.461 290.32C175.877 297.248 169.672 303.495 169.672 304.202C169.672 305.387 181.277 297.781 198.698 285.178L205.803 280.038L216.964 284.891C223.103 287.561 228.378 289.998 228.688 290.308C228.998 290.617 220.954 296.504 210.813 303.39C200.673 310.275 192.358 316.424 192.337 317.053C192.288 318.546 190.804 319.501 228.557 293.736L261.279 271.404L269.408 274.2C287.551 280.442 301.222 281.931 339.936 281.88L376.556 281.833L363.978 287.684C335.684 300.845 276.49 336.515 249.898 356.425C232.644 369.345 204.379 398.027 188.438 418.792C182.585 426.415 176.813 432.572 175.529 432.562C174.245 432.552 164.882 429.747 154.708 426.33L154.71 426.33Z" fill="#FF0000" fill-opacity="0.84666"/>
<path d="M154.71 426.33C129.689 417.926 95.4638 400.695 70.6768 384.025C58.7288 375.989 38.0118 360.161 35.5328 357.174C34.2135 355.584 41.4444 347.741 73.1478 316.373C94.7348 295.015 126.079 264.579 142.802 248.737C159.525 232.895 178.227 215.117 184.363 209.231C190.499 203.345 194.991 199.801 194.348 201.356C193.705 202.912 192.93 207.723 192.626 212.047C192.108 219.45 192.407 220.329 197.732 227.066C203.232 234.024 219.918 249.133 223.67 250.551C224.889 251.012 223.579 252.897 219.879 256.004C216.768 258.616 210.404 264.571 205.737 269.238C201.069 273.906 191.045 283.392 183.461 290.32C175.877 297.248 169.672 303.495 169.672 304.202C169.672 305.387 181.277 297.781 198.698 285.178L205.803 280.038L216.964 284.891C223.103 287.561 228.378 289.998 228.688 290.308C228.998 290.617 220.954 296.504 210.813 303.39C200.673 310.275 192.358 316.424 192.337 317.053C192.288 318.546 190.804 319.501 228.557 293.736L261.279 271.404L269.408 274.2C287.551 280.442 301.222 281.931 339.936 281.88L376.556 281.833L363.978 287.684C335.684 300.845 276.49 336.515 249.898 356.425C232.644 369.345 204.379 398.027 188.438 418.792C182.585 426.415 176.813 432.572 175.529 432.562C174.245 432.552 164.882 429.747 154.708 426.33L154.71 426.33Z" fill="url(#paint22_linear_745_2083)"/>
<path d="M154.71 426.33C129.689 417.926 95.4638 400.695 70.6768 384.025C58.7288 375.989 38.0118 360.161 35.5328 357.174C34.2135 355.584 41.4444 347.741 73.1478 316.373C94.7348 295.015 126.079 264.579 142.802 248.737C159.525 232.895 178.227 215.117 184.363 209.231C190.499 203.345 194.991 199.801 194.348 201.356C193.705 202.912 192.93 207.723 192.626 212.047C192.108 219.45 192.407 220.329 197.732 227.066C203.232 234.024 219.918 249.133 223.67 250.551C224.889 251.012 223.579 252.897 219.879 256.004C216.768 258.616 210.404 264.571 205.737 269.238C201.069 273.906 191.045 283.392 183.461 290.32C175.877 297.248 169.672 303.495 169.672 304.202C169.672 305.387 181.277 297.781 198.698 285.178L205.803 280.038L216.964 284.891C223.103 287.561 228.378 289.998 228.688 290.308C228.998 290.617 220.954 296.504 210.813 303.39C200.673 310.275 192.358 316.424 192.337 317.053C192.288 318.546 190.804 319.501 228.557 293.736L261.279 271.404L269.408 274.2C287.551 280.442 301.222 281.931 339.936 281.88L376.556 281.833L363.978 287.684C335.684 300.845 276.49 336.515 249.898 356.425C232.644 369.345 204.379 398.027 188.438 418.792C182.585 426.415 176.813 432.572 175.529 432.562C174.245 432.552 164.882 429.747 154.708 426.33L154.71 426.33Z" fill="url(#paint23_linear_745_2083)"/>
</g>
<defs>
<linearGradient id="paint0_linear_745_2083" x1="629.88" y1="128.87" x2="192.44" y2="144.42" gradientUnits="userSpaceOnUse">
<stop/>
<stop offset="1" stop-opacity="0"/>
</linearGradient>
<linearGradient id="paint1_linear_745_2083" x1="563.41" y1="68.055" x2="427.65" y2="93.511" gradientUnits="userSpaceOnUse">
<stop/>
<stop offset="1" stop-opacity="0"/>
</linearGradient>
<linearGradient id="paint2_linear_745_2083" x1="-56.016" y1="423.02" x2="184.399" y2="307.06" gradientUnits="userSpaceOnUse">
<stop stop-color="#333333"/>
<stop offset="1" stop-color="#333333" stop-opacity="0"/>
</linearGradient>
<linearGradient id="paint3_linear_745_2083" x1="68.4357" y1="585.66" x2="314.51" y2="333.93" gradientUnits="userSpaceOnUse">
<stop/>
<stop offset="1" stop-opacity="0"/>
</linearGradient>
<linearGradient id="paint4_linear_745_2083" x1="605.84" y1="-49.324" x2="530.82" y2="123.21" gradientUnits="userSpaceOnUse">
<stop/>
<stop offset="1" stop-opacity="0"/>
</linearGradient>
<linearGradient id="paint5_linear_745_2083" x1="629.88" y1="249.07" x2="690.69" y2="290.41" gradientUnits="userSpaceOnUse">
<stop/>
<stop offset="1" stop-opacity="0"/>
</linearGradient>
<linearGradient id="paint6_linear_745_2083" x1="874.54" y1="507.88" x2="655.33" y2="113.31" gradientUnits="userSpaceOnUse">
<stop/>
<stop offset="1" stop-opacity="0"/>
</linearGradient>
<linearGradient id="paint7_linear_745_2083" x1="874.54" y1="507.88" x2="655.33" y2="113.31" gradientUnits="userSpaceOnUse">
<stop/>
<stop offset="1" stop-opacity="0"/>
</linearGradient>
<linearGradient id="paint8_linear_745_2083" x1="874.54" y1="507.88" x2="655.33" y2="113.31" gradientUnits="userSpaceOnUse">
<stop/>
<stop offset="1" stop-opacity="0"/>
</linearGradient>
<linearGradient id="paint9_linear_745_2083" x1="874.54" y1="-32.354" x2="675.13" y2="29.872" gradientUnits="userSpaceOnUse">
<stop/>
<stop offset="1" stop-opacity="0"/>
</linearGradient>
<linearGradient id="paint10_linear_745_2083" x1="874.54" y1="-32.354" x2="675.13" y2="29.8719" gradientUnits="userSpaceOnUse">
<stop/>
<stop offset="1" stop-opacity="0"/>
</linearGradient>
<linearGradient id="paint11_linear_745_2083" x1="982.02" y1="299.99" x2="979.19" y2="294.33" gradientUnits="userSpaceOnUse">
<stop stop-color="white"/>
<stop offset="1" stop-color="white" stop-opacity="0"/>
</linearGradient>
<linearGradient id="paint12_linear_745_2083" x1="30.2522" y1="538.99" x2="912.72" y2="438.58" gradientUnits="userSpaceOnUse">
<stop/>
<stop offset="1" stop-opacity="0"/>
</linearGradient>
<linearGradient id="paint13_linear_745_2083" x1="257.94" y1="608.29" x2="512.5" y2="341.74" gradientUnits="userSpaceOnUse">
<stop/>
<stop offset="1" stop-opacity="0"/>
</linearGradient>
<linearGradient id="paint14_linear_745_2083" x1="-34.8021" y1="560.2" x2="325.82" y2="347.99" gradientUnits="userSpaceOnUse">
<stop/>
<stop offset="1" stop-opacity="0"/>
</linearGradient>
<linearGradient id="paint15_linear_745_2083" x1="-34.8023" y1="560.2" x2="325.82" y2="347.99" gradientUnits="userSpaceOnUse">
<stop/>
<stop offset="1" stop-opacity="0"/>
</linearGradient>
<linearGradient id="paint16_linear_745_2083" x1="-34.8024" y1="560.2" x2="325.82" y2="347.99" gradientUnits="userSpaceOnUse">
<stop/>
<stop offset="1" stop-opacity="0"/>
</linearGradient>
<linearGradient id="paint17_linear_745_2083" x1="-34.802" y1="560.2" x2="325.82" y2="347.99" gradientUnits="userSpaceOnUse">
<stop/>
<stop offset="1" stop-opacity="0"/>
</linearGradient>
<linearGradient id="paint18_linear_745_2083" x1="414.92" y1="575.76" x2="348.1" y2="360.8" gradientUnits="userSpaceOnUse">
<stop/>
<stop offset="1" stop-opacity="0"/>
</linearGradient>
<linearGradient id="paint19_linear_745_2083" x1="414.92" y1="575.76" x2="348.1" y2="360.8" gradientUnits="userSpaceOnUse">
<stop/>
<stop offset="1" stop-opacity="0"/>
</linearGradient>
<linearGradient id="paint20_linear_745_2083" x1="414.92" y1="575.76" x2="348.1" y2="360.8" gradientUnits="userSpaceOnUse">
<stop/>
<stop offset="1" stop-opacity="0"/>
</linearGradient>
<linearGradient id="paint21_linear_745_2083" x1="238.14" y1="66.641" x2="260.77" y2="189.68" gradientUnits="userSpaceOnUse">
<stop stop-color="white"/>
<stop offset="1" stop-color="white" stop-opacity="0"/>
</linearGradient>
<linearGradient id="paint22_linear_745_2083" x1="313.09" y1="451.31" x2="225.41" y2="328.27" gradientUnits="userSpaceOnUse">
<stop/>
<stop offset="1" stop-opacity="0"/>
</linearGradient>
<linearGradient id="paint23_linear_745_2083" x1="50.0508" y1="154.32" x2="184.4" y2="254.73" gradientUnits="userSpaceOnUse">
<stop/>
<stop offset="1" stop-opacity="0"/>
</linearGradient>
<clipPath id="clip0_745_2083">
<rect width="891.497" height="551.193" fill="white"/>
</clipPath>
</defs>
</svg>
